<?xml version="1.0" standalone="no"?><!DOCTYPE svg PUBLIC "-//W3C//DTD SVG 1.1//EN" "http://www.w3.org/Graphics/SVG/1.1/DTD/svg11.dtd"><svg width="100%" height="100%" viewBox="0 0 482 155" version="1.1" xmlns="http://www.w3.org/2000/svg" xmlns:xlink="http://www.w3.org/1999/xlink" xml:space="preserve" style="fill-rule:evenodd;clip-rule:evenodd;stroke-linejoin:round;stroke-miterlimit:1.41421;"><g><path d="M130.238,86.496c-4.42,6.79 -12.08,11.218 -20.726,11.218c-9.784,0 -18.245,-5.706 -22.317,-14.002l-18.436,28.303c10.273,10.833 24.733,17.579 40.753,17.579c19.775,0 37.17,-10.279 47.251,-25.836l57.497,-88.253l-37.766,0l-46.256,70.991ZM88.786,58.602c4.42,-6.79 12.08,-11.217 20.726,-11.217c9.784,0 18.245,5.705 22.317,14.001l18.436,-28.303c-10.273,-10.832 -24.733,-17.578 -40.753,-17.578c-19.775,0 -37.171,10.279 -47.251,25.836l-57.497,88.253l37.766,0l46.256,-70.992ZM109.512,59.85c6.94,0 12.566,5.685 12.566,12.699c0,7.014 -5.626,12.7 -12.566,12.7c-6.94,0 -12.566,-5.686 -12.566,-12.7c0,-7.014 5.626,-12.699 12.566,-12.699" style="fill:#7a00d1;fill-rule:nonzero;"/><text x="210.757px" y="101.059px" style="font-family:CiutadellaW04-Medium;font-size:96px;font-weight:500;fill:#1b2329;">COOKII</text></g></svg>