<?xml version="1.0" standalone="no"?><!DOCTYPE svg PUBLIC "-//W3C//DTD SVG 1.1//EN" "http://www.w3.org/Graphics/SVG/1.1/DTD/svg11.dtd"><svg width="100%" height="100%" viewBox="0 0 482 155" version="1.1" xmlns="http://www.w3.org/2000/svg" xmlns:xlink="http://www.w3.org/1999/xlink" xml:space="preserve" style="fill-rule:evenodd;clip-rule:evenodd;stroke-linejoin:round;stroke-miterlimit:1.41421;"><g><path d="M130.238,86.496c-4.42,6.79 -12.08,11.218 -20.726,11.218c-9.784,0 -18.245,-5.706 -22.317,-14.002l-18.436,28.303c10.273,10.833 24.733,17.579 40.753,17.579c19.775,0 37.17,-10.279 47.251,-25.836l57.497,-88.253l-37.766,0l-46.256,70.991ZM88.786,58.602c4.42,-6.79 12.08,-11.217 20.726,-11.217c9.784,0 18.245,5.705 22.317,14.001l18.436,-28.303c-10.273,-10.832 -24.733,-17.578 -40.753,-17.578c-19.775,0 -37.171,10.279 -47.251,25.836l-57.497,88.253l37.766,0l46.256,-70.992l0,0ZM109.512,59.85c6.94,0 12.566,5.685 12.566,12.699c0,7.014 -5.626,12.7 -12.566,12.7c-6.94,0 -12.566,-5.686 -12.566,-12.7c0,-7.014 5.626,-12.699 12.566,-12.699" style="fill:#7a00d1;fill-rule:nonzero;"/><path d="M258.949,80.131l0,1.824c0,3.072 -0.512,5.856 -1.536,8.352c-1.024,2.496 -2.464,4.608 -4.32,6.336c-1.856,1.728 -4.064,3.056 -6.624,3.984c-2.56,0.928 -5.408,1.392 -8.544,1.392c-3.2,0 -6.112,-0.48 -8.736,-1.44c-2.624,-0.96 -4.864,-2.336 -6.72,-4.128c-1.856,-1.792 -3.312,-3.952 -4.368,-6.48c-1.056,-2.528 -1.584,-5.392 -1.584,-8.592l0,-23.712c0,-6.4 1.872,-11.44 5.616,-15.12c3.744,-3.68 9.008,-5.52 15.792,-5.52c3.136,0 5.984,0.464 8.544,1.392c2.56,0.928 4.768,2.256 6.624,3.984c1.856,1.728 3.296,3.84 4.32,6.336c1.024,2.496 1.536,5.28 1.536,8.352l0,1.44l-9.6,0l0,-1.536c0,-3.264 -1.008,-5.92 -3.024,-7.968c-2.016,-2.048 -4.88,-3.072 -8.592,-3.072c-3.584,0 -6.368,1.088 -8.352,3.264c-1.984,2.176 -2.976,4.992 -2.976,8.448l0,23.712c0,3.456 0.992,6.272 2.976,8.448c1.984,2.176 4.768,3.264 8.352,3.264c3.712,0 6.576,-1.024 8.592,-3.072c2.016,-2.048 3.024,-4.704 3.024,-7.968l0,-1.92l9.6,0Z" style="fill:#1b2329;fill-rule:nonzero;"/><path d="M279.205,81.379c0,3.456 1.008,6.272 3.024,8.448c2.016,2.176 4.88,3.264 8.592,3.264c3.712,0 6.576,-1.088 8.592,-3.264c2.016,-2.176 3.024,-4.992 3.024,-8.448l0,-23.712c0,-3.456 -1.008,-6.272 -3.024,-8.448c-2.016,-2.176 -4.88,-3.264 -8.592,-3.264c-3.712,0 -6.576,1.088 -8.592,3.264c-2.016,2.176 -3.024,4.992 -3.024,8.448l0,23.712ZM312.421,81.379c0,3.2 -0.528,6.064 -1.584,8.592c-1.056,2.528 -2.528,4.688 -4.416,6.48c-1.888,1.792 -4.16,3.168 -6.816,4.128c-2.656,0.96 -5.584,1.44 -8.784,1.44c-3.2,0 -6.112,-0.48 -8.736,-1.44c-2.624,-0.96 -4.88,-2.336 -6.768,-4.128c-1.888,-1.792 -3.36,-3.952 -4.416,-6.48c-1.056,-2.528 -1.584,-5.392 -1.584,-8.592l0,-23.712c0,-6.336 1.888,-11.36 5.664,-15.072c3.776,-3.712 9.056,-5.568 15.84,-5.568c3.2,0 6.128,0.48 8.784,1.44c2.656,0.96 4.928,2.336 6.816,4.128c1.888,1.792 3.36,3.968 4.416,6.528c1.056,2.56 1.584,5.408 1.584,8.544l0,23.712Z" style="fill:#1b2329;fill-rule:nonzero;"/><path d="M333.733,81.379c0,3.456 1.008,6.272 3.024,8.448c2.016,2.176 4.88,3.264 8.592,3.264c3.712,0 6.576,-1.088 8.592,-3.264c2.016,-2.176 3.024,-4.992 3.024,-8.448l0,-23.712c0,-3.456 -1.008,-6.272 -3.024,-8.448c-2.016,-2.176 -4.88,-3.264 -8.592,-3.264c-3.712,0 -6.576,1.088 -8.592,3.264c-2.016,2.176 -3.024,4.992 -3.024,8.448l0,23.712ZM366.949,81.379c0,3.2 -0.528,6.064 -1.584,8.592c-1.056,2.528 -2.528,4.688 -4.416,6.48c-1.888,1.792 -4.16,3.168 -6.816,4.128c-2.656,0.96 -5.584,1.44 -8.784,1.44c-3.2,0 -6.112,-0.48 -8.736,-1.44c-2.624,-0.96 -4.88,-2.336 -6.768,-4.128c-1.888,-1.792 -3.36,-3.952 -4.416,-6.48c-1.056,-2.528 -1.584,-5.392 -1.584,-8.592l0,-23.712c0,-6.336 1.888,-11.36 5.664,-15.072c3.776,-3.712 9.056,-5.568 15.84,-5.568c3.2,0 6.128,0.48 8.784,1.44c2.656,0.96 4.928,2.336 6.816,4.128c1.888,1.792 3.36,3.968 4.416,6.528c1.056,2.56 1.584,5.408 1.584,8.544l0,23.712Z" style="fill:#1b2329;fill-rule:nonzero;"/><path d="M389.989,70.435l22.272,-32.448l11.04,0l-17.376,25.92l17.952,37.152l-11.136,0l-13.728,-28.896l-9.024,13.152l0,15.744l-9.888,0l0,-63.072l9.888,0l0,32.448Z" style="fill:#1b2329;fill-rule:nonzero;"/><rect x="432.805" y="37.987" width="9.888" height="63.072" style="fill:#1b2329;fill-rule:nonzero;"/><rect x="457.573" y="37.987" width="9.888" height="63.072" style="fill:#1b2329;fill-rule:nonzero;"/></g></svg>